<mxfile host="65bd71144e">
    <diagram id="CsTE9p8uSfuX7-fvBqFS" name="Page-1">
        <mxGraphModel dx="901" dy="350" grid="1" gridSize="1.1810999999999998" guides="1" tooltips="1" connect="1" arrows="1" fold="1" page="1" pageScale="1" pageWidth="827" pageHeight="1169" background="#ffffff" math="0" shadow="0">
            <root>
                <mxCell id="0"/>
                <mxCell id="1" parent="0"/>
                <mxCell id="2" value="Application" style="rounded=1;whiteSpace=wrap;html=1;" vertex="1" parent="1">
                    <mxGeometry x="190" y="130" width="205" height="50" as="geometry"/>
                </mxCell>
                <mxCell id="3" value="SOES Service" style="rounded=1;whiteSpace=wrap;html=1;" vertex="1" parent="1">
                    <mxGeometry x="190" y="180" width="205" height="50" as="geometry"/>
                </mxCell>
                <mxCell id="6" value="TMC8462A Driver" style="whiteSpace=wrap;html=1;rounded=1;" vertex="1" parent="1">
                    <mxGeometry x="190" y="230" width="205" height="50" as="geometry"/>
                </mxCell>
                <mxCell id="9" value="STM32 SPI" style="whiteSpace=wrap;html=1;rounded=1;" vertex="1" parent="1">
                    <mxGeometry x="190" y="280" width="205" height="50" as="geometry"/>
                </mxCell>
            </root>
        </mxGraphModel>
    </diagram>
</mxfile>